# xmcd
#
# Track frame offsets: 
#        150
#        16187
#        32533
#        54068
#        68593
#        79220
#        104903
#        117974
#        141600
#        158745
#        176064
#        199895
#        213708
#        233026
#        248789
#        273269
#
# Disc length: 3899 seconds
#
# Revision: 1
# Processed by: cddbd v1.5.2PL0 Copyright (c) Steve Scherf et al.
# Submitted via: ExactAudioCopy v0.99pb4
#
DISCID=e10f3910
DTITLE=Various Artist - Jazz Duets, Jazz Duos CD1
DYEAR=2007
DGENRE=Jazz
TTITLE0=Clare Teal and Jamie Cullum/The Road Less Travelled
TTITLE1=Jill Scott, Al Jarreau and George Benson/God Bless The Child
TTITLE2=Arcoiris feat. Silver Donati and Alonso F. Bay)/Horse With No Na
TTITLE2=me
TTITLE3=Isa Sand and Nils Landgren/Use Me
TTITLE4=Jacqui Dankworth and George Melly/Big Butter and Egg Man
TTITLE5=Sesong feat. Thomas Dybdahl and Britt Synnove Johansen/Love Unto
TTITLE5=ld
TTITLE6=Rosalia De Souza and Marcos Valle/Que Bandeire
TTITLE7=Sofi Hellborg and Tony Allen/To Give Is To Get
TTITLE8=Toca and Rosalia De Souza/Bom Motivo
TTITLE9=Donzalla and Henri Salvador/L'Éboueur De Saint-Tropez
TTITLE10=Aldo Romano and Carla Bruni/Io Qui Tu Li
TTITLE11=Marcel Amont and Agnes Jaoui/Décalage Horaire
TTITLE12=Madeleine Peyroux and William Galison/Got You On My Mind
TTITLE13=Bob Dorough and Trudy Kerr/On Top Of Mount Tipsey
TTITLE14=Jazzonia feat. Alicia Renee and Grandmaster Melle Mel/Twisted
TTITLE15=Jazz Liberatorz and Pharcyde/Ease My Mind
EXTD=YEAR: 2007
EXTT0=
EXTT1=
EXTT2=
EXTT3=
EXTT4=
EXTT5=
EXTT6=
EXTT7=
EXTT8=
EXTT9=
EXTT10=
EXTT11=
EXTT12=
EXTT13=
EXTT14=
EXTT15=
PLAYORDER=
